<svg id="Layer_1" data-name="Layer 1" xmlns="http://www.w3.org/2000/svg" xmlns:xlink="http://www.w3.org/1999/xlink" viewBox="0 0 26 26"><defs><style>.cls-1,.cls-6{fill:none;}.cls-2{clip-path:url(#clip-path);}.cls-3{clip-path:url(#clip-path-2);}.cls-4{clip-path:url(#clip-path-3);}.cls-5{fill:#0387bf;}.cls-6{stroke:#0387bf;stroke-miterlimit:10;}</style><clipPath id="clip-path"><rect class="cls-1" x="-141.01" y="58" width="2" height="2"/></clipPath><clipPath id="clip-path-2"><rect class="cls-1" x="-149.02" y="58" width="2" height="2"/></clipPath><clipPath id="clip-path-3"><rect class="cls-1" x="-176.06" y="1" width="64.08" height="64"/></clipPath></defs><title>svg-zengo</title><rect class="cls-5" x="21.32" y="11.04" width="1.93" height="1.9" rx="0.25" ry="0.25"/><rect class="cls-5" x="21.32" y="14.6" width="1.93" height="1.9" rx="0.25" ry="0.25"/><rect class="cls-5" x="21.32" y="18.15" width="1.93" height="1.9" rx="0.25" ry="0.25"/><rect class="cls-5" x="2.75" y="11.04" width="1.93" height="1.9" rx="0.25" ry="0.25"/><rect class="cls-5" x="2.75" y="14.6" width="1.93" height="1.9" rx="0.25" ry="0.25"/><rect class="cls-5" x="2.75" y="18.15" width="1.93" height="1.9" rx="0.25" ry="0.25"/><path class="cls-5" d="M6.43,9.58V25H1V9.58H6.43m1-1H0V26H7.43V8.58h0Z"/><path class="cls-5" d="M25,9.58V25H19.57V9.58H25m1-1H18.57V26H26V8.58h0Z"/><path class="cls-5" d="M18.55,1V25H7.45V1h11.1m1-1H6.45V26h13.1V0h0Z"/><line class="cls-6" x1="0.07" y1="22.24" x2="7.04" y2="22.24"/><line class="cls-6" x1="19.23" y1="22.24" x2="25.93" y2="22.24"/><line class="cls-6" x1="7.13" y1="21.43" x2="19.23" y2="21.43"/><line class="cls-6" x1="10.28" y1="21.43" x2="10.28" y2="25.59"/><line class="cls-6" x1="15.42" y1="21.43" x2="15.42" y2="25.59"/><rect class="cls-5" x="9.46" y="2.67" width="2.64" height="2.49" rx="0.5" ry="0.5"/><rect class="cls-5" x="13.9" y="2.67" width="2.64" height="2.49" rx="0.5" ry="0.5"/><rect class="cls-5" x="9.46" y="7.42" width="2.64" height="2.49" rx="0.5" ry="0.5"/><rect class="cls-5" x="13.9" y="7.42" width="2.64" height="2.49" rx="0.5" ry="0.5"/><rect class="cls-5" x="9.46" y="12.16" width="2.64" height="2.49" rx="0.5" ry="0.5"/><rect class="cls-5" x="13.9" y="12.16" width="2.64" height="2.49" rx="0.5" ry="0.5"/><rect class="cls-5" x="9.46" y="16.91" width="2.64" height="2.49" rx="0.5" ry="0.5"/><rect class="cls-5" x="13.9" y="16.91" width="2.64" height="2.49" rx="0.5" ry="0.5"/><rect class="cls-1" x="-319.24" y="-590.81" width="1440" height="2716"/><rect class="cls-1" x="-319.24" y="-590.81" width="1440" height="2716"/><rect class="cls-1" x="-319.24" y="-590.81" width="1440" height="2716"/></svg>